# AST/ASF file generated using VICON BodyLanguage
# -----------------------------------------------
:version 1.10
:name VICON
:units
  mass 1.0
  length 0.45
  angle deg
:documentation
   .ast/.asf automatically generated from VICON data using
   VICON BodyBuilder and BodyLanguage model FoxedUp or BRILLIANT.MOD
:root
   order TX TY TZ RX RY RZ
   axis XYZ
   position 0 0 0  
   orientation 0 0 0 
:bonedata
  begin
     id 1 
     name lhipjoint
     direction 0.64773 -0.699417 0.302095 
     length 2.48597 
     axis 0 0 0  XYZ
  end
  begin
     id 2 
     name lfemur
     direction 0.34202 -0.939693 0  
     length 6.71947  
     axis 0 0 20  XYZ
    dof rx ry rz
    limits (-160.0 20.0)
           (-70.0 70.0)
           (-60.0 70.0)
  end
  begin
     id 3 
     name ltibia
     direction 0.34202 -0.939693 0   
     length 8.08777   
     axis 0 0 20   XYZ
    dof rx
    limits (-10.0 170.0)
  end
  begin
     id 4 
     name lfoot
     direction 0.0808503 -0.222134 0.971658   
     length 2.08264   
     axis -90 7.62852e-016 20   XYZ
    dof rx rz
    limits (-45.0 90.0)
           (-70.0 20.0)
  end
  begin
     id 5 
     name ltoes
     direction 1.53502e-011 -4.22007e-011 1   
     length 1.04662   
     axis -90 7.62852e-016 20   XYZ
    dof rx
    limits (-90.0 20.0)
  end
  begin
     id 6 
     name rhipjoint
     direction -0.610924 -0.726792 0.313919   
     length 2.39233  
     axis 0 0 0  XYZ 
  end
  begin
     id 7 
     name rfemur
     direction -0.34202 -0.939693 0   
     length 6.96955   
     axis 0 0 -20   XYZ
    dof rx ry rz
    limits (-160.0 20.0)
           (-70.0 70.0)
           (-70.0 60.0)
  end
  begin
     id 8 
     name rtibia
     direction -0.34202 -0.939693 0   
     length 8.19584   
     axis 0 0 -20   XYZ
    dof rx
    limits (-10.0 170.0)
 end
 begin
     id 9 
     name rfoot
     direction -0.077777 -0.213691 0.9738   
     length 2.07539  
     axis -90 -7.62852e-016 -20   XYZ
    dof rx rz
    limits (-45.0 90.0)
           (-20.0 70.0)
  end
  begin
     id 10 
     name rtoes
     direction -1.53558e-011 -4.22006e-011 1   
     length 1.04381   
     axis -90 -7.62852e-016 -20   XYZ
    dof rx
    limits (-90.0 20.0)
  end
  begin
     id 11 
     name lowerback
     direction -0.00971646 0.996074 0.0879841   
     length 1.67643   
     axis 0 0 0   XYZ
    dof rx ry rz
    limits (-20.0 45.0)
           (-30.0 30.0)
           (-30.0 30.0)
  end
  begin
     id 12 
     name upperback
     direction 0.0127391 0.991676 0.128127   
     length 1.63741   
     axis 0 0 0   XYZ
    dof rx ry rz
    limits (-20.0 45.0)
           (-30.0 30.0)
           (-30.0 30.0)
  end
  begin
     id 13 
     name thorax
     direction 0.0167583 0.996049 0.0872067   
     length 1.65931   
     axis 0 0 0   XYZ
    dof rx ry rz
    limits (-20.0 45.0)
           (-30.0 30.0)
           (-30.0 30.0)
  end
  begin
     id 14 
     name lowerneck
     direction -0.0317829 0.998312 0.0486079   
     length 1.79021   
     axis 0 0 0   XYZ
    dof rx ry rz
    limits (-20.0 45.0)
           (-30.0 30.0)
           (-30.0 30.0)
  end
  begin
     id 15 
     name upperneck
     direction 0.0896851 0.972452 -0.215159   
     length 1.78797   
     axis 0 0 0   XYZ
    dof rx ry rz
    limits (-20.0 45.0)
           (-30.0 30.0)
           (-30.0 30.0)
  end
  begin
     id 16
     name head
     direction 0.0310949 0.996503 -0.0775582  
     length 1.81549  
     axis 0 0 0   XYZ
    dof rx ry rz
    limits (-20.0 45.0)
           (-30.0 30.0)
           (-30.0 30.0)
  end
  begin
     id 17 
     name lclavicle
     direction 0.853638 0.502051 -0.138733  
     length 3.31627  
     axis 0 0 0   XYZ
    dof ry rz
    limits (-20.0 10.0)
           (0.0 20.0)
  end
  begin
     id 18 
     name lhumerus
     direction 1 -4.48962e-011 -1.41788e-018   
     length 5.54893   
     axis 180 -30 -90   XYZ
    dof rx ry rz
    limits (-60.0 90.0)
           (-90.0 90.0)
           (-90.0 90.0)
  end
  begin
     id 19
     name lradius
     direction 1 -4.48962e-011 -4.95754e-027   
     length 3.02898   
     axis 180 -30 -90   XYZ
    dof rx
    limits (-10.0 170.0)
  end
  begin
     id 20
     name lwrist
     direction 1 -4.48952e-011 -1.03764e-026   
     length 1.51449   
     axis 9.09556e-015 90 90   XYZ
    dof ry
    limits (-180.0 0.0)
 end
  begin
     id 21 
     name lhand
     direction 1 -4.4902e-011 -2.07528e-026   
     length 0.640951   
     axis 1.3242e-014 90 90   XYZ
    dof rx rz
    limits (-90.0 90.0)
           (-45.0 45.0)
  end
  begin
     id 22 
     name lfingers
     direction 1 -4.49014e-011 -4.15056e-026   
     length 0.516751   
     axis 2.64841e-014 90 90   XYZ
    dof rx
    limits (0.0 90.0)
  end
  begin
     id 23
     name lthumb
     direction 0.707107 -6.35008e-011 0.707107   
     length 0.741954   
     axis -90 45 2.85299e-015   XYZ
    dof rx rz
    limits (-45.0 45.0)
           (-45.0 45.0)
  end
  begin
     id 24 
     name rclavicle
     direction -0.888531 0.455324 -0.0565039   
     length 3.20126  
     axis 0 0 0   XYZ 
    dof ry rz
    limits (-10.0 20.0)
           (-20.0 0.0)
  end
  begin
     id 25 
     name rhumerus
     direction -1 -4.48946e-011 -8.98298e-028  
     length 5.3519   
     axis 180 30 90   XYZ
    dof rx ry rz
    limits (-90.0 60.0)
           (-90.0 90.0)
           (-90.0 90.0)
  end
  begin
     id 26 
     name rradius
     direction -1 -4.4899e-011 -3.18779e-027   
     length 3.02531   
     axis 180 30 90   XYZ
    dof rx
    limits (-10.0 170.0)
  end
  begin
     id 27 
     name rwrist
     direction -1 -4.4897e-011 -1.03764e-026   
     length 1.51266   
     axis 9.09556e-015 -90 -90   XYZ
    dof ry
    limits (-180.0 0.0)
  end
  begin
     id 28
     name rhand
     direction -1 -4.48941e-011 -2.07528e-026   
     length 0.78389   
     axis 1.3242e-014 -90 -90   XYZ
    dof rx rz
    limits (-90.0 90.0)
           (-45.0 45.0)
  end
  begin
     id 29
     name rfingers
     direction -1 -4.49012e-011 -4.15056e-026   
     length 0.631992   
     axis 2.64841e-014 -90 -90   XYZ
    dof rx
    limits (0.0 90.0)
  end
  begin
     id 30
     name rthumb
     direction -0.707107 -6.3496e-011 0.707107   
     length 0.907418   
     axis -90 -45 -2.85299e-015   XYZ
    dof rx rz
    limits (-45.0 45.0)
           (-45.0 45.0)
  end
:hierarchy
  begin
    root lhipjoint rhipjoint lowerback
    lhipjoint lfemur
    lfemur ltibia
    ltibia lfoot
    lfoot ltoes
    rhipjoint rfemur
    rfemur rtibia
    rtibia rfoot
    rfoot rtoes
    lowerback upperback
    upperback thorax
    thorax lowerneck lclavicle rclavicle
    lowerneck upperneck
    upperneck head
    lclavicle lhumerus
    lhumerus lradius
    lradius lwrist
    lwrist lhand lthumb
    lhand lfingers
    rclavicle rhumerus
    rhumerus rradius
    rradius rwrist
    rwrist rhand rthumb
    rhand rfingers
  end

#!OML:ASF E:\Style3\Style3.ASF
:FULLY-SPECIFIED
:DEGREES
843
root -0.788879 17.2874 2.36882 -292.612 88.7617 -359.306
lowerback 211.319 182.676 176.276
upperback 8.14226 -4.03671 -3.27145
thorax -7.87425 -1.54686 -0.10035
lowerneck -1.3369 -2.20044 -3.59834
upperneck -25.345 -1.25987 6.88631
head -7.43931 -0.455747 2.91895
rclavicle 3.33958e-014 -1.15295e-014
rhumerus -61.3065 20.0795 -86.6439
rradius 81.4918
rwrist -15.1603
rhand 19.1281 10.325
rfingers 7.12502
rthumb 43.722 -13.6608
lclavicle 3.33958e-014 -1.15295e-014
lhumerus -61.6071 -16.4759 76.0155
lradius 96.4746
lwrist 34.047
lhand -9.23049 41.8295
lfingers 7.12502
lthumb 16.7246 71.129
rfemur -80.7242 3.97078 20.5823
rtibia 19.5425
rfoot -5.50249 -11.585
rtoes -13.8278
lfemur -78.8424 -5.09815 17.3089
ltibia 23.5473
lfoot -5.74996 42.6011
ltoes -23.4084
844
root -0.798869 17.2723 2.35959 -308.905 89.5524 -375.711
lowerback 211.261 182.786 176.471
upperback 8.12125 -4.11682 -3.30378
thorax -7.88776 -1.58558 -0.220495
lowerneck -1.15038 -2.14139 -3.54833
upperneck -25.6245 -1.15586 6.86842
head -7.57281 -0.401781 2.90631
rclavicle 5.08889e-014 2.52457e-014
rhumerus -61.4664 20.4043 -86.916
rradius 81.5872
rwrist -14.5626
rhand 18.4025 10.4425
rfingers 7.12502
rthumb 43.0441 -13.7879
lclavicle 5.08889e-014 2.52457e-014
lhumerus -61.68 -16.2771 75.8486
lradius 96.5121
lwrist 34.1141
lhand -9.31321 41.7725
lfingers 7.12502
lthumb 16.6449 71.0788
rfemur -81.0307 3.83915 21.3158
rtibia 19.9287
rfoot -5.73746 -11.5272
rtoes -13.5405
lfemur -79.3043 -4.76904 17.5484
ltibia 23.8093
lfoot -5.37096 42.1898
ltoes -23.8412
845
root -0.771133 17.2993 2.36635 -392.497 89.1964 -458.36
lowerback 212.24 182.658 176.259
upperback 8.30421 -4.03141 -3.42458
thorax -8.12813 -1.52209 -0.241699
lowerneck -1.06868 -2.0194 -3.546
upperneck -25.782 -0.943911 6.94687
head -7.6515 -0.297872 2.92375
rclavicle -9.54166e-015 -1.92821e-014
rhumerus -61.4457 20.8774 -87.287
rradius 81.546
rwrist -14.1153
rhand 17.7942 10.4618
rfingers 7.12502
rthumb 42.475 -13.9671
lclavicle -9.54166e-015 -1.92821e-014
lhumerus -61.8159 -15.8114 75.5905
lradius 96.4657
lwrist 34.0025
lhand -9.27583 41.6679
lfingers 7.12502
lthumb 16.6809 70.9712
rfemur -79.937 4.4189 22.0834
rtibia 20.1785
rfoot -6.0353 -11.6512
rtoes -13.6147
lfemur -78.1952 -4.92863 18.1751
ltibia 23.9977
lfoot -6.61151 42.0974
ltoes -23.1861
846
root -0.799474 17.2413 2.3385 -440.3 88.7822 -507.154
lowerback 211.161 182.924 176.829
upperback 8.15069 -4.18049 -3.40518
thorax -7.84378 -1.6188 -0.519924
lowerneck -1.00315 -2.03578 -3.66429
upperneck -25.9541 -0.95211 6.97918
head -7.71893 -0.286466 2.95933
rclavicle -7.79236e-014 -2.82274e-014
rhumerus -61.4363 20.9825 -87.1427
rradius 81.5611
rwrist -13.9186
rhand 17.5985 10.4925
rfingers 7.12502
rthumb 42.2917 -13.9991
lclavicle -7.79236e-014 -2.82274e-014
lhumerus -61.8267 -15.7497 75.6962
lradius 96.3979
lwrist 34.038
lhand -9.11863 41.7089
lfingers 7.12502
lthumb 16.8322 70.9994
rfemur -81.417 3.79568 23.151
rtibia 20.8019
rfoot -6.11759 -11.1801
rtoes -13.6439
lfemur -79.611 -4.21412 18.2608
ltibia 24.1789
lfoot -5.13562 41.4538
ltoes -24.6558
847
root -0.768289 17.2633 2.34578 -437.693 88.2778 -503.54
lowerback 212.728 182.411 176.056
upperback 7.90572 -3.79656 -3.26864
thorax -8.02863 -1.3932 -0.0385446
lowerneck -1.06926 -2.10078 -3.74528
upperneck -25.9752 -1.06253 6.88658
head -7.70829 -0.317803 2.94754
rclavicle -4.45278e-014 -5.80451e-014
rhumerus -61.4126 20.8547 -86.7924
rradius 81.5571
rwrist -13.6778
rhand 17.5243 10.9322
rfingers 7.12502
rthumb 42.2222 -13.583
lclavicle -4.45278e-014 -5.80451e-014
lhumerus -61.8313 -16.0834 75.8398
lradius 96.5355
lwrist 34.3157
lhand -8.559 42.0261
lfingers 7.12502
lthumb 17.3709 71.2699
rfemur -80.5226 4.02772 23.6943
rtibia 21.5093
rfoot -6.64435 -11.2055
rtoes -13.8384
lfemur -78.5425 -4.45304 18.0459
ltibia 24.3157
lfoot -3.93556 40.9762
ltoes -26.8174
848
root -0.808924 17.1874 2.30528 -463.159 87.7908 -530.479
lowerback 210.854 182.813 176.591
upperback 8.15695 -4.0845 -3.33012
thorax -7.66756 -1.57446 -0.344381
lowerneck -1.04341 -2.11035 -3.26597
upperneck -26.167 -1.14401 6.36158
head -7.78689 -0.348854 2.69648
rclavicle 6.83819e-014 6.79844e-014
rhumerus -61.3773 20.795 -86.6319
rradius 81.5653
rwrist -13.5675
rhand 17.2173 11.1788
rfingers 7.12502
rthumb 41.9345 -13.4332
lclavicle 6.83819e-014 6.79844e-014
lhumerus -61.8319 -16.4335 75.818
lradius 96.6834
lwrist 34.6524
lhand -8.21525 42.1571
lfingers 7.12502
lthumb 17.7017 71.3713
rfemur -82.863 3.0428 24.116
rtibia 22.5122
rfoot -6.84589 -10.9834
rtoes -13.3274
lfemur -80.7708 -4.14779 18.6499
ltibia 24.4523
lfoot -3.67321 41.1025
ltoes -26.7631
849
root -0.826193 17.1495 2.27921 -471.138 87.1709 -539.017
lowerback 210.414 183.015 176.83
upperback 8.09539 -4.26698 -3.43124
thorax -7.55629 -1.66625 -0.542194
lowerneck -1.17953 -2.11133 -2.94142
upperneck -26.2171 -1.17302 6.06345
head -7.78668 -0.357269 2.54035
rclavicle -1.43125e-014 -7.95139e-016
rhumerus -61.3096 20.8079 -86.5626
rradius 81.5717
rwrist -13.6435
rhand 16.9339 11.252
rfingers 7.12502
rthumb 41.6688 -13.448
lclavicle -1.43125e-014 -7.95139e-016
lhumerus -61.7169 -16.5856 75.6823
lradius 96.687
lwrist 34.8928
lhand -7.8524 42.1599
lfingers 7.12502
lthumb 18.0508 71.3423
rfemur -83.9654 2.44044 24.6634
rtibia 23.2953
rfoot -7.06446 -10.7689
rtoes -13.1865
lfemur -81.8235 -4.10544 19.036
ltibia 24.6311
lfoot -3.72283 41.035
ltoes -26.6976
850
root -0.832199 17.1264 2.26325 -470.748 86.4724 -538.832
lowerback 210.386 182.844 176.829
upperback 8.10984 -4.04031 -3.31491
thorax -7.51835 -1.56252 -0.492305
lowerneck -1.737 -2.25001 -3.00664
upperneck -25.9048 -1.35623 6.1055
head -7.57211 -0.430765 2.56227
rclavicle -9.54166e-015 -1.98785e-015
rhumerus -61.1944 20.4802 -86.1407
rradius 81.59
rwrist -13.8241
rhand 16.893 11.3033
rfingers 7.12502
rthumb 41.6304 -13.4094
lclavicle -9.54166e-015 -1.98785e-015
lhumerus -61.4521 -16.9777 75.923
lradius 96.6803
lwrist 34.9939
lhand -7.67749 42.1658
lfingers 7.12502
lthumb 18.2191 71.3325
rfemur -84.6114 2.13058 25.5531
rtibia 24.0979
rfoot -7.40937 -10.4441
rtoes -13.7679
lfemur -82.3788 -3.96935 19.4144
ltibia 24.9416
lfoot -3.43612 40.7366
ltoes -27.0805
851
root -0.835945 17.1067 2.24943 -469.267 85.8073 -537.501
lowerback 210.356 182.6 176.761
upperback 8.13328 -3.73808 -3.15759
thorax -7.46304 -1.42417 -0.384892
lowerneck -2.04046 -2.40244 -3.05577
upperneck -25.7949 -1.59297 5.98757
head -7.47149 -0.521255 2.5373
rclavicle -3.33958e-014 -1.35174e-014
rhumerus -60.9265 20.0317 -85.5965
rradius 81.4637
rwrist -13.8902
rhand 17.0472 11.3523
rfingers 7.12502
rthumb 41.7751 -13.3127
lclavicle -3.33958e-014 -1.35174e-014
lhumerus -61.2473 -17.3465 76.397
lradius 96.612
lwrist 34.8085
lhand -7.89164 42.0884
lfingers 7.12502
lthumb 18.0131 71.2743
rfemur -85.0435 1.90851 26.4935
rtibia 24.6638
rfoot -7.7255 -10.1083
rtoes -14.1736
lfemur -82.8052 -3.79583 19.7894
ltibia 25.2443
lfoot -3.28391 40.404
ltoes -27.2756
852
root -0.841088 17.0825 2.23747 -466.633 85.1504 -535.129
lowerback 210.201 182.193 176.578
upperback 8.11565 -3.25808 -2.81572
thorax -7.37996 -1.20857 -0.0692494
lowerneck -2.25887 -2.63312 -3.25665
upperneck -25.7127 -1.99428 5.69394
head -7.3888 -0.666409 2.48985
rclavicle 1.74931e-014 4.37326e-015
rhumerus -60.6191 19.5652 -84.7706
rradius 81.2403
rwrist -13.9008
rhand 17.2159 11.399
rfingers 7.12502
rthumb 41.9332 -13.2134
lclavicle 1.74931e-014 4.37326e-015
lhumerus -60.9219 -17.7423 77.0707
lradius 96.5056
lwrist 34.956
lhand -8.13579 42.4906
lfingers 7.12502
lthumb 17.7782 71.6979
rfemur -85.5578 1.8332 27.461
rtibia 25.1465
rfoot -7.96578 -9.7498
rtoes -14.2705
lfemur -83.2654 -3.4562 20.2361
ltibia 25.5344
lfoot -2.81003 40.1424
ltoes -28.1342
853
root -0.844361 17.0616 2.22391 -466.011 84.5983 -534.709
lowerback 210.202 181.968 176.34
upperback 8.05035 -3.04391 -2.69685
thorax -7.4363 -1.10832 0.126119
lowerneck -2.3514 -2.71405 -3.19076
upperneck -25.6377 -2.14593 5.4964
head -7.34537 -0.726268 2.41746
rclavicle 4.69132e-014 6.65929e-014
rhumerus -60.4505 19.247 -84.376
rradius 81.1091
rwrist -13.9915
rhand 17.5156 11.193
rfingers 7.12502
rthumb 42.214 -13.325
lclavicle 4.69132e-014 6.65929e-014
lhumerus -60.9891 -18.1181 77.1837
lradius 96.7404
lwrist 35.6424
lhand -8.32119 42.9219
lfingers 7.12502
lthumb 17.5998 72.1453
rfemur -86.0144 1.63263 28.3216
rtibia 25.5942
rfoot -8.21246 -9.36316
rtoes -13.9584
lfemur -83.7115 -3.34556 20.7949
ltibia 25.8016
lfoot -3.04102 40.1759
ltoes -28.281
854
root -0.844248 17.0478 2.21432 -465.81 83.9665 -534.554
lowerback 210.361 181.879 176.193
upperback 8.0109 -2.98386 -2.7233
thorax -7.54996 -1.07441 0.163902
lowerneck -2.18343 -2.65576 -2.85317
upperneck -25.8857 -2.05367 5.37894
head -7.46957 -0.695041 2.32212
rclavicle 3.33958e-014 -2.52457e-014
rhumerus -60.4024 19.0321 -84.3691
rradius 81.0778
rwrist -14.0554
rhand 17.7211 10.8644
rfingers 7.12502
rthumb 42.4065 -13.588
lclavicle 3.33958e-014 -2.52457e-014
lhumerus -61.2207 -18.4264 76.9611
lradius 97.0628
lwrist 36.2215
lhand -8.12448 42.8593
lfingers 7.12502
lthumb 17.7891 72.0657
rfemur -86.2831 1.43928 29.1428
rtibia 26.0612
rfoot -8.46389 -9.11015
rtoes -13.4783
lfemur -83.9803 -3.21497 21.0525
ltibia 26.0442
lfoot -3.59729 39.8038
ltoes -27.8249
855
root -0.84218 17.037 2.20657 -465.096 83.2595 -533.781
lowerback 210.566 181.788 176.075
upperback 8.01068 -2.9096 -2.75154
thorax -7.64368 -1.0333 0.177542
lowerneck -1.99169 -2.54872 -2.55891
upperneck -26.1319 -1.87593 5.32825
head -7.59933 -0.624052 2.25151
rclavicle -8.74653e-015 -1.5704e-014
rhumerus -60.5447 19.0374 -84.3589
rradius 81.3066
rwrist -14.1371
rhand 17.8156 10.7219
rfingers 7.12502
rthumb 42.495 -13.7001
lclavicle -8.74653e-015 -1.5704e-014
lhumerus -60.9897 -18.4633 76.9636
lradius 96.8575
lwrist 36.11
lhand -7.75643 43.0989
lfingers 7.12502
lthumb 18.1432 72.2727
rfemur -86.411 1.30738 29.9696
rtibia 26.5254
rfoot -8.72436 -8.89315
rtoes -13.286
lfemur -84.1144 -3.01947 21.1657
ltibia 26.2865
lfoot -3.78091 39.1844
ltoes -27.8383
856
root -0.842837 17.0202 2.19483 -464.945 82.507 -533.713
lowerback 210.566 181.724 176.067
upperback 7.99963 -2.8298 -2.74062
thorax -7.65703 -0.995214 0.165787
lowerneck -1.90379 -2.50259 -2.34992
upperneck -26.1724 -1.80566 5.25942
head -7.63574 -0.600683 2.19017
rclavicle -3.10104e-014 5.96354e-015
rhumerus -60.8077 19.1064 -84.2241
rradius 81.6099
rwrist -14.3205
rhand 17.8263 10.6991
rfingers 7.12502
rthumb 42.505 -13.7194
lclavicle -3.10104e-014 5.96354e-015
lhumerus -60.7622 -18.5154 77.0789
lradius 96.6696
lwrist 35.8892
lhand -7.43828 43.6163
lfingers 7.12502
lthumb 18.4493 72.7615
rfemur -86.7054 1.11747 30.8166
rtibia 26.9716
rfoot -8.92581 -8.64572
rtoes -13.6738
lfemur -84.4798 -2.79874 21.3327
ltibia 26.5846
lfoot -3.56329 38.6154
ltoes -28.048
